<?xml version="1.0" encoding="UTF-8"?>
<svg xmlns="http://www.w3.org/2000/svg" xmlns:xlink="http://www.w3.org/1999/xlink" width="313.209pt" height="112.567pt" viewBox="0 0 313.209 112.567">
<path fill-rule="nonzero" fill="rgb(13.729858%, 12.159729%, 12.548828%)" fill-opacity="1" d="M 48.246094 90.890625 L 69.6875 90.890625 L 69.6875 43.101562 L 48.246094 43.101562 Z M 48.246094 90.890625 "/>
<path fill-rule="nonzero" fill="rgb(13.729858%, 12.159729%, 12.548828%)" fill-opacity="1" d="M 21.675781 90.890625 L 43.113281 90.890625 L 43.113281 21.675781 L 21.675781 21.675781 Z M 21.675781 90.890625 "/>
<path fill-rule="nonzero" fill="rgb(13.729858%, 12.159729%, 12.548828%)" fill-opacity="1" d="M 95.109375 81.296875 C 95.109375 74.996094 90.015625 69.839844 83.675781 69.839844 C 77.449219 69.839844 72.355469 74.996094 72.355469 81.296875 C 72.355469 87.597656 77.449219 92.636719 83.675781 92.636719 C 90.015625 92.636719 95.109375 87.597656 95.109375 81.296875 "/>
<path fill-rule="nonzero" fill="rgb(13.729858%, 12.159729%, 12.548828%)" fill-opacity="1" d="M 122.613281 43.101562 L 122.613281 70.835938 C 122.613281 73.292969 121.597656 74.523438 119.574219 74.523438 C 117.519531 74.523438 116.492188 73.292969 116.492188 70.835938 L 116.492188 43.101562 L 95.113281 43.101562 L 95.113281 65.5 C 95.113281 73.386719 96.96875 79.554688 100.671875 83.992188 C 105.441406 89.679688 111.734375 92.261719 119.550781 92.261719 C 127.367188 92.261719 133.660156 89.679688 138.433594 83.992188 C 142.136719 79.554688 143.988281 73.386719 143.988281 65.5 L 143.988281 43.101562 Z M 122.613281 43.101562 "/>
<path fill-rule="nonzero" fill="rgb(13.729858%, 12.159729%, 12.548828%)" fill-opacity="1" d="M 189.121094 63.605469 L 187.421875 63.605469 L 187.394531 63.5625 L 177.390625 46.75 L 177.390625 63.605469 L 175.507812 63.605469 L 175.507812 43.101562 L 177.179688 43.101562 L 177.207031 43.144531 L 187.234375 60.015625 L 187.234375 43.101562 L 189.121094 43.101562 Z M 189.121094 63.605469 "/>
<path fill-rule="nonzero" fill="rgb(13.729858%, 12.159729%, 12.548828%)" fill-opacity="1" d="M 261.121094 63.605469 L 259.417969 63.605469 L 259.394531 63.5625 L 249.390625 46.75 L 249.390625 63.605469 L 247.503906 63.605469 L 247.503906 43.101562 L 249.175781 43.101562 L 249.203125 43.144531 L 259.234375 60.015625 L 259.234375 43.101562 L 261.121094 43.101562 Z M 261.121094 63.605469 "/>
<path fill-rule="nonzero" fill="rgb(13.729858%, 12.159729%, 12.548828%)" fill-opacity="1" d="M 167.238281 63.605469 L 156.417969 63.605469 L 156.417969 43.101562 L 158.300781 43.101562 L 158.300781 61.777344 L 167.238281 61.777344 Z M 167.238281 63.605469 "/>
<path fill-rule="nonzero" fill="rgb(13.729858%, 12.159729%, 12.548828%)" fill-opacity="1" d="M 171.34375 63.605469 L 169.460938 63.605469 L 169.460938 43.101562 L 171.34375 43.101562 Z M 171.34375 63.605469 "/>
<path fill-rule="nonzero" fill="rgb(13.729858%, 12.159729%, 12.548828%)" fill-opacity="1" d="M 211.832031 41.894531 C 211.210938 41.894531 210.683594 41.371094 210.683594 40.746094 C 210.683594 40.125 211.210938 39.597656 211.832031 39.597656 C 212.453125 39.597656 212.980469 40.125 212.980469 40.746094 C 212.980469 41.371094 212.453125 41.894531 211.832031 41.894531 M 217.082031 41.894531 C 216.460938 41.894531 215.9375 41.371094 215.9375 40.746094 C 215.9375 40.125 216.460938 39.597656 217.082031 39.597656 C 217.707031 39.597656 218.230469 40.125 218.230469 40.746094 C 218.230469 41.371094 217.707031 41.894531 217.082031 41.894531 M 214.457031 44.609375 C 211.460938 44.609375 209.449219 46.730469 209.449219 49.878906 L 209.449219 56.738281 C 209.449219 59.894531 211.460938 62.007812 214.457031 62.007812 C 217.453125 62.007812 219.464844 59.894531 219.464844 56.738281 L 219.464844 49.910156 C 219.464844 46.742188 217.453125 44.609375 214.457031 44.609375 M 214.457031 63.835938 C 210.398438 63.835938 207.5625 60.894531 207.5625 56.683594 L 207.5625 49.964844 C 207.5625 45.738281 210.398438 42.785156 214.457031 42.785156 C 218.515625 42.785156 221.351562 45.738281 221.351562 49.964844 L 221.351562 56.683594 C 221.351562 60.894531 218.515625 63.835938 214.457031 63.835938 "/>
<path fill-rule="nonzero" fill="rgb(13.729858%, 12.159729%, 12.548828%)" fill-opacity="1" d="M 226.972656 55.898438 L 230.914062 55.898438 C 234.140625 55.898438 236.070312 54.003906 236.070312 50.832031 L 236.070312 50.109375 C 236.070312 46.835938 234.191406 44.957031 230.914062 44.957031 L 226.972656 44.957031 Z M 226.972656 63.605469 L 225.085938 63.605469 L 225.085938 43.101562 L 230.972656 43.101562 C 235.214844 43.101562 237.953125 45.851562 237.953125 50.109375 L 237.953125 50.859375 C 237.953125 55.09375 235.277344 57.726562 230.972656 57.726562 L 226.972656 57.726562 Z M 226.972656 63.605469 "/>
<path fill-rule="nonzero" fill="rgb(13.729858%, 12.159729%, 12.548828%)" fill-opacity="1" d="M 243.121094 63.605469 L 241.238281 63.605469 L 241.238281 43.101562 L 243.121094 43.101562 Z M 243.121094 63.605469 "/>
<path fill-rule="nonzero" fill="rgb(13.729858%, 12.159729%, 12.548828%)" fill-opacity="1" d="M 271.707031 63.894531 C 267.664062 63.894531 264.839844 60.953125 264.839844 56.738281 L 264.839844 49.90625 C 264.839844 45.695312 267.664062 42.753906 271.707031 42.753906 C 275.675781 42.753906 278.511719 45.625 278.601562 49.734375 L 278.601562 49.828125 L 276.71875 49.828125 L 276.714844 49.738281 C 276.660156 46.652344 274.648438 44.582031 271.707031 44.582031 C 268.585938 44.582031 266.726562 46.734375 266.726562 50.339844 L 266.726562 56.769531 C 266.726562 59.921875 268.726562 62.039062 271.707031 62.039062 C 274.703125 62.039062 276.714844 59.921875 276.714844 56.769531 L 276.714844 55.707031 L 271.644531 55.707031 L 271.644531 53.996094 L 278.601562 53.996094 L 278.601562 56.738281 C 278.601562 60.953125 275.765625 63.894531 271.707031 63.894531 "/>
<path fill-rule="nonzero" fill="rgb(13.729858%, 12.159729%, 12.548828%)" fill-opacity="1" d="M 207.1875 63.605469 L 204.945312 63.605469 L 204.917969 63.570312 L 197.789062 54.066406 L 195.6875 54.066406 L 195.6875 63.605469 L 193.800781 63.605469 L 193.800781 43.101562 L 195.6875 43.101562 L 195.6875 52.296875 L 197.816406 52.296875 L 203.902344 43.101562 L 206.058594 43.101562 L 199.394531 53.195312 Z M 207.1875 63.605469 "/>
<path fill-rule="nonzero" fill="rgb(13.729858%, 12.159729%, 12.548828%)" fill-opacity="1" d="M 188.058594 90.890625 L 186.355469 90.890625 L 186.328125 90.847656 L 176.328125 74.035156 L 176.328125 90.890625 L 174.441406 90.890625 L 174.441406 70.386719 L 176.113281 70.386719 L 176.140625 70.429688 L 186.171875 87.300781 L 186.171875 70.386719 L 188.058594 70.386719 Z M 188.058594 90.890625 "/>
<path fill-rule="nonzero" fill="rgb(13.729858%, 12.159729%, 12.548828%)" fill-opacity="1" d="M 205.046875 90.890625 L 203.242188 90.890625 L 203.21875 90.828125 L 196.523438 70.386719 L 198.507812 70.386719 L 198.527344 70.449219 L 204.144531 87.914062 L 209.8125 70.386719 L 211.792969 70.386719 L 211.75 70.507812 Z M 205.046875 90.890625 "/>
<path fill-rule="nonzero" fill="rgb(13.729858%, 12.159729%, 12.548828%)" fill-opacity="1" d="M 163.023438 91.121094 C 158.964844 91.121094 156.128906 88.179688 156.128906 83.96875 L 156.128906 70.386719 L 158.015625 70.386719 L 158.015625 84.023438 C 158.015625 87.175781 160.027344 89.292969 163.023438 89.292969 C 166.019531 89.292969 168.035156 87.175781 168.035156 84.023438 L 168.035156 70.386719 L 169.917969 70.386719 L 169.917969 83.96875 C 169.917969 88.179688 167.082031 91.121094 163.023438 91.121094 "/>
<path fill-rule="nonzero" fill="rgb(13.729858%, 12.159729%, 12.548828%)" fill-opacity="1" d="M 194.359375 90.890625 L 192.476562 90.890625 L 192.476562 70.386719 L 194.359375 70.386719 Z M 194.359375 90.890625 "/>
<path fill-rule="nonzero" fill="rgb(13.729858%, 12.159729%, 12.548828%)" fill-opacity="1" d="M 229.964844 82.601562 L 233.910156 82.601562 C 237.136719 82.601562 239.0625 80.839844 239.0625 77.882812 L 239.0625 77.074219 C 239.0625 73.957031 237.234375 72.238281 233.910156 72.238281 L 229.964844 72.238281 Z M 240.984375 90.886719 L 238.707031 90.886719 L 238.679688 90.851562 L 233.777344 84.429688 L 229.964844 84.429688 L 229.964844 90.886719 L 228.082031 90.886719 L 228.082031 70.382812 L 234.054688 70.382812 C 238.304688 70.382812 240.949219 72.96875 240.949219 77.132812 L 240.949219 77.882812 C 240.949219 81.253906 238.996094 83.574219 235.722656 84.117188 Z M 240.984375 90.886719 "/>
<path fill-rule="nonzero" fill="rgb(13.729858%, 12.159729%, 12.548828%)" fill-opacity="1" d="M 262.097656 90.886719 L 260.210938 90.886719 L 260.210938 70.382812 L 262.097656 70.382812 Z M 262.097656 90.886719 "/>
<path fill-rule="nonzero" fill="rgb(13.729858%, 12.159729%, 12.548828%)" fill-opacity="1" d="M 225.316406 90.890625 L 213.863281 90.890625 L 213.863281 70.386719 L 225.054688 70.386719 L 225.054688 72.242188 L 215.746094 72.242188 L 215.746094 79.667969 L 222.609375 79.667969 L 222.609375 81.378906 L 215.746094 81.378906 L 215.746094 89.0625 L 225.316406 89.0625 Z M 225.316406 90.890625 "/>
<path fill-rule="nonzero" fill="rgb(13.729858%, 12.159729%, 12.548828%)" fill-opacity="1" d="M 250.390625 79.816406 C 247.699219 79.144531 245.15625 78.503906 245.15625 75.632812 C 245.15625 73.273438 246.769531 71.863281 249.6875 71.863281 C 251.914062 71.863281 254.285156 73.140625 254.398438 76.675781 L 256.289062 76.675781 C 256.175781 71.789062 252.855469 70.039062 249.746094 70.039062 C 245.6875 70.039062 243.300781 72.183594 243.300781 75.632812 C 243.300781 79.878906 246.6875 80.734375 249.675781 81.492188 C 252.28125 82.148438 254.742188 82.769531 254.742188 85.464844 C 254.742188 88.390625 252.199219 89.433594 249.820312 89.433594 C 246.699219 89.433594 244.839844 87.402344 244.839844 83.992188 L 244.839844 83.902344 L 242.980469 83.902344 L 242.980469 83.992188 C 242.980469 88.390625 245.667969 91.234375 249.820312 91.234375 C 253.953125 91.234375 256.628906 88.957031 256.628906 85.433594 C 256.628906 81.382812 253.457031 80.585938 250.390625 79.816406 "/>
<path fill-rule="nonzero" fill="rgb(13.729858%, 12.159729%, 12.548828%)" fill-opacity="1" d="M 271.191406 90.886719 L 269.308594 90.886719 L 269.308594 72.238281 L 263.828125 72.238281 L 263.828125 70.382812 L 276.46875 70.382812 L 276.46875 72.238281 L 271.191406 72.238281 Z M 271.191406 90.886719 "/>
<path fill-rule="nonzero" fill="rgb(13.729858%, 12.159729%, 12.548828%)" fill-opacity="1" d="M 279.214844 70.382812 L 284.378906 81.476562 L 289.558594 70.382812 L 291.53125 70.382812 L 285.25 83.230469 L 285.25 90.886719 L 283.535156 90.886719 L 283.535156 83.230469 L 277.28125 70.382812 Z M 279.214844 70.382812 "/>
</svg>
